<?xml version="1.0" ?><!DOCTYPE svg  PUBLIC '-//W3C//DTD SVG 1.1//EN'  'http://www.w3.org/Graphics/SVG/1.1/DTD/svg11.dtd'><svg height="8.4666mm" style="shape-rendering:geometricPrecision; text-rendering:geometricPrecision; image-rendering:optimizeQuality; fill-rule:evenodd; clip-rule:evenodd" version="1.1" viewBox="0 0 846.66 846.66" width="8.4666mm" xml:space="preserve" xmlns="http://www.w3.org/2000/svg" xmlns:xlink="http://www.w3.org/1999/xlink"><defs><style type="text/css">
   <![CDATA[
    .fil0 {fill:black;fill-rule:nonzero}
   ]]>
  </style></defs><g id="Layer_x0020_1"><path class="fil0" d="M501.96 642.41l-0.18 -77.79 -46.27 7.45 0.15 63.1 46.3 7.24zm208.76 -322.74l-52.59 0 0 202.99 52.59 0 0 -202.99zm-73.31 -41.43l73.31 0 0 -155.41 -496.11 0c0,224.37 0,448.74 0,673.11l496.11 0 0 -231.86 -73.31 0c-11.43,0 -20.71,-9.27 -20.71,-20.71l0 -244.41c0,-11.44 9.28,-20.72 20.71,-20.72zm-464.23 -131.97l-37.24 0 0 144 37.24 0 0 -144zm-57.95 -41.42l57.95 0 0 -74.84c0,-11.44 9.28,-20.72 20.72,-20.72l537.54 0c11.43,0 20.71,9.28 20.71,20.72 0,262.21 0,524.43 0,786.64 0,11.44 -9.28,20.72 -20.71,20.72l-537.54 0c-11.44,0 -20.72,-9.28 -20.72,-20.72l0 -74.84 -57.95 0c-11.44,0 -20.72,-9.27 -20.72,-20.71l0 -185.42c0,-11.44 9.28,-20.71 20.72,-20.71l57.95 0 0 -183.28 -57.95 0c-11.44,0 -20.72,-9.27 -20.72,-20.71l0 -185.42c0,-11.44 9.28,-20.71 20.72,-20.71zm57.95 451.54l-37.24 0 0 144 37.24 0 0 -144zm41.43 -474.99l496.11 0 0 -30.68 -496.11 0 0 30.68zm327.62 133.37l0.29 125.39c0,12.82 -11.54,22.46 -24.08,20.34l-81.62 -12.75c-36.37,15.94 -53.71,54.93 -53.62,92.9 0.08,37.83 17.72,76.81 53.98,92.55l81.94 -13.2c12.54,-1.83 23.87,7.57 23.87,20.39l0.29 125.83c0.16,12.72 -11.1,22.65 -23.78,20.69l-87.39 -13.65c-0.61,-0.09 -1.2,-0.2 -1.79,-0.34 -107.94,-22.14 -157.31,-130.49 -157.42,-231.76 -0.12,-100.98 49.26,-211.07 157.05,-233.26 0.48,-0.1 0.95,-0.18 1.42,-0.24l86.99 -14.02c12.89,-2.04 24.32,8.21 23.87,21.13zm-128.58 98.2l-0.14 -56.98c-70.63,29.75 -99.43,113.77 -99.35,185.17 0.08,71.5 29.29,154.75 100.21,183.97l-0.13 -57.07c-47.89,-24.07 -72.19,-75.44 -72.31,-127.41 -0.11,-51.88 24.06,-103.43 71.72,-127.68zm87.55 3.08l-0.18 -77.79 -46.27 7.45 0.15 63.1 46.3 7.24z"/></g></svg>